<?xml version="1.0" encoding="iso-8859-1"?>
<!-- Generator: Adobe Illustrator 19.0.0, SVG Export Plug-In . SVG Version: 6.00 Build 0)  -->
<svg version="1.1" id="Layer_1" xmlns="http://www.w3.org/2000/svg" xmlns:xlink="http://www.w3.org/1999/xlink" x="0px" y="0px"
	 viewBox="0 0 512 512" style="enable-background:new 0 0 512 512;" xml:space="preserve">
<rect x="377.879" y="375.646" style="fill:#CCCCCC;" width="96.1" height="51.65"/>
<g>
	
		<rect x="68.392" y="283.808" transform="matrix(0.7835 -0.6214 0.6214 0.7835 -183.6567 127.937)" style="fill:#464655;" width="46.757" height="87.441"/>
	<path style="fill:#464655;" d="M21.481,312.569L0,329.608l68.87,86.826l21.481-17.039c11.653-9.244,13.607-26.184,4.363-37.836
		l-35.397-44.626C50.075,305.278,33.135,303.325,21.481,312.569z"/>
</g>
<path style="opacity:0.1;enable-background:new    ;" d="M29.752,329.11c7.307-5.796,16.692-7.186,24.956-4.546l-0.158-0.2
	l36.631-29.056l43.09,54.325l2.977-2.362L82.91,278.766l-36.631,29.056l0.158,0.2c-8.264-2.641-17.649-1.25-24.956,4.546L0,329.608
	l11.248,14.179L29.752,329.11z"/>
<rect x="229.61" y="304.351" transform="matrix(-0.6245 -0.781 0.781 -0.6245 193.188 753.2294)" style="fill:#CCCCCC;" width="96.098" height="51.649"/>
<path style="opacity:0.1;enable-background:new    ;" d="M377.876,427.296h37.405c2.616-8.146,4.042-16.82,4.042-25.826
	c0-9.004-1.426-17.678-4.042-25.826h-37.405V427.296z"/>
<circle style="fill:#999999;" cx="334.649" cy="401.473" r="55.135"/>
<circle style="fill:#CCCCCC;" cx="334.649" cy="401.473" r="25.826"/>
<path style="opacity:0.1;enable-background:new    ;" d="M324.184,401.471c0-11.589,7.632-21.395,18.146-24.664
	c-2.426-0.755-5.006-1.161-7.68-1.161c-14.263,0-25.826,11.562-25.826,25.826c0,14.263,11.562,25.826,25.826,25.826
	c2.674,0,5.254-0.406,7.68-1.161C331.817,422.865,324.184,413.06,324.184,401.471z"/>
<polygon style="opacity:0.1;enable-background:new    ;" points="267.814,276.523 227.472,308.778 256.792,345.448 297.258,313.35 
	"/>
<polygon style="fill:#B3B3B3;" points="396.165,197.197 151.783,391.041 99.89,325.619 314.905,94.751 "/>
<polygon style="opacity:0.1;enable-background:new    ;" points="298.078,226.235 304.459,170.903 347.948,136.408 314.905,94.751 
	99.89,325.619 128.04,361.108 "/>
<polygon style="fill:#CCCCCC;" points="109.685,337.968 270.138,210.696 276.519,155.365 329.593,113.267 302.88,28.889 
	33.811,242.313 "/>
<path style="fill:#B3B3B3;" d="M456.184,375.645v51.65c0,30.827,24.989,55.816,55.816,55.816V319.829
	C481.174,319.829,456.184,344.818,456.184,375.645z"/>
<g>
</g>
<g>
</g>
<g>
</g>
<g>
</g>
<g>
</g>
<g>
</g>
<g>
</g>
<g>
</g>
<g>
</g>
<g>
</g>
<g>
</g>
<g>
</g>
<g>
</g>
<g>
</g>
<g>
</g>
</svg>
