<?xml version="1.0" encoding="iso-8859-1"?>
<!-- Generator: Adobe Illustrator 19.0.0, SVG Export Plug-In . SVG Version: 6.00 Build 0)  -->
<svg version="1.1" id="Layer_1" xmlns="http://www.w3.org/2000/svg" xmlns:xlink="http://www.w3.org/1999/xlink" x="0px" y="0px"
	 viewBox="0 0 512 512" style="enable-background:new 0 0 512 512;" xml:space="preserve">
<path style="fill:#009AD2;" d="M425.22,308.068v80.994l0.231,0.579c-9.141,3.471-18.976,5.207-29.158,5.207
	s-20.017-1.736-29.158-5.207l0.231-0.579v-80.994H425.22z"/>
<g>
	<path style="fill:#9DA1A4;" d="M425.22,389.062v-80.994h57.853c0,37.72-24.067,69.771-57.622,81.573L425.22,389.062z"/>
	<path style="fill:#9DA1A4;" d="M367.367,308.068v80.994l-0.231,0.579c-33.555-11.802-57.622-43.853-57.622-81.573H367.367z"/>
</g>
<polygon style="fill:#C3C7C9;" points="483.073,261.785 483.073,308.068 425.22,308.068 367.367,308.068 309.514,308.068 
	309.514,261.785 "/>
<path style="fill:#FFD311;" d="M130.169,279.141c12.728,0,23.141,10.414,23.141,23.141c0,12.728-10.414,23.141-23.141,23.141
	s-23.141-10.414-23.141-23.141C107.028,289.555,117.442,279.141,130.169,279.141z"/>
<path style="fill:#00ABD5;" d="M251.661,406.418H8.678V117.153h242.983V406.418z M153.311,302.283
	c0-12.728-10.414-23.141-23.141-23.141s-23.141,10.414-23.141,23.141c0,12.728,10.414,23.141,23.141,23.141
	S153.311,315.01,153.311,302.283z"/>
<g>
	<path style="fill:#9DA1A4;" d="M8.678,406.418h242.983v46.282c0,6.364-5.207,11.571-11.571,11.571H20.249
		c-6.364,0-11.571-5.207-11.571-11.571V406.418z"/>
	<path style="fill:#9DA1A4;" d="M20.249,47.729H240.09c6.364,0,11.571,5.207,11.571,11.571v57.853H8.678V59.299
		C8.678,52.936,13.885,47.729,20.249,47.729z"/>
</g>
<path style="fill:#00BDE2;" d="M8.678,134.508v271.91h242.983v-28.927L8.678,134.508z M130.169,325.424
	c-12.728,0-23.141-10.414-23.141-23.141c0-12.728,10.414-23.141,23.141-23.141s23.141,10.414,23.141,23.141
	C153.311,315.01,142.897,325.424,130.169,325.424z"/>
<path d="M240.09,39.051H20.249C9.084,39.051,0,48.135,0,59.299v393.401c0,11.164,9.084,20.249,20.249,20.249H240.09
	c11.164,0,20.249-9.084,20.249-20.249V59.299C260.339,48.135,251.255,39.051,240.09,39.051z M20.249,56.407H240.09
	c1.568,0,2.893,1.325,2.893,2.893v49.175H17.356V59.299C17.356,57.732,18.681,56.407,20.249,56.407z M242.983,125.831v271.91H17.356
	v-271.91H242.983z M240.09,455.593H20.249c-1.568,0-2.893-1.325-2.893-2.893v-37.604h225.627v37.604
	C242.983,454.268,241.658,455.593,240.09,455.593z"/>
<rect x="83.887" y="73.763" style="fill:#FFFFFF;" width="92.565" height="17.356"/>
<rect x="112.814" y="426.667" width="34.712" height="17.356"/>
<g>
	<path style="fill:#FFFFFF;" d="M68.968,235.631c0.565-1.649,14.353-40.377,61.202-40.377c47.104,0,62.64,39.023,63.266,40.652
		l16.251-6.095c-0.795-2.12-20.15-51.913-79.517-51.913c-31.069,0-50.523,14.115-61.373,25.958
		c-11.719,12.79-16.105,25.721-16.286,26.265L68.968,235.631z"/>
	<path style="fill:#FFFFFF;" d="M130.169,241.537c20.37,0,27.255,16.858,27.511,17.511l16.251-6.095
		c-0.441-1.174-11.163-28.771-43.762-28.771c-32.827,0-42.543,27.876-42.94,29.062l16.457,5.515
		C103.743,258.584,109.692,241.537,130.169,241.537z"/>
</g>
<path d="M130.169,270.463c-17.545,0-31.819,14.275-31.819,31.819s14.275,31.819,31.819,31.819s31.819-14.275,31.819-31.819
	S147.714,270.463,130.169,270.463z M130.169,316.746c-7.976,0-14.463-6.488-14.463-14.463c0-7.976,6.488-14.463,14.463-14.463
	s14.463,6.488,14.463,14.463C144.633,310.258,138.145,316.746,130.169,316.746z"/>
<rect x="31.819" y="143.186" width="23.141" height="17.356"/>
<rect x="205.379" y="143.186" width="23.141" height="17.356"/>
<rect x="205.379" y="363.028" style="fill:#FFFFFF;" width="23.141" height="17.356"/>
<rect x="205.379" y="328.316" width="23.141" height="17.356"/>
<rect x="170.667" y="363.028" width="23.141" height="17.356"/>
<rect x="31.819" y="363.028" style="fill:#FFFFFF;" width="23.141" height="17.356"/>
<rect x="31.819" y="328.316" width="23.141" height="17.356"/>
<rect x="66.531" y="363.028" width="23.141" height="17.356"/>
<path d="M394.327,108.475c47.104,0,62.64,39.023,63.266,40.652l16.251-6.095c-0.795-2.12-20.15-51.913-79.517-51.913
	c-31.006,0-50.463,14.113-61.325,25.953c-11.729,12.783-16.144,25.708-16.326,26.251l16.445,5.548
	C333.689,147.221,347.577,108.475,394.327,108.475z"/>
<path d="M421.955,172.268l16.251-6.095c-0.441-1.174-11.166-28.771-43.879-28.771c-32.827,0-42.543,27.876-42.94,29.062
	l16.457,5.515c0.058-0.172,6.005-17.221,26.484-17.221C414.808,154.757,421.697,171.617,421.955,172.268z"/>
<rect x="384.723" y="189.469" width="23.141" height="17.356"/>
<rect x="384.723" y="334.102" style="fill:#FFFFFF;" width="23.141" height="17.356"/>
<path d="M512,253.107H280.588v17.356h20.249v46.282h0.411c3.354,36.73,27.772,68.644,62.909,81.046
	c10.057,3.804,20.87,5.733,32.137,5.733s22.08-1.929,32.137-5.733c35.137-12.403,59.555-44.317,62.909-81.046h0.411v-46.282H512
	V253.107z M318.684,316.746h40.005v59.665C336.556,364.343,321.512,342.031,318.684,316.746z M376.045,383.44v-66.694h40.497v66.694
	c-6.432,1.808-13.216,2.73-20.249,2.73S382.477,385.249,376.045,383.44z M433.898,376.411v-59.665h40.005
	C471.076,342.031,456.032,364.343,433.898,376.411z M474.395,299.39H318.192v-28.927h156.203V299.39z"/>
<g>
</g>
<g>
</g>
<g>
</g>
<g>
</g>
<g>
</g>
<g>
</g>
<g>
</g>
<g>
</g>
<g>
</g>
<g>
</g>
<g>
</g>
<g>
</g>
<g>
</g>
<g>
</g>
<g>
</g>
</svg>
